<svg width="20" height="21" viewBox="0 0 20 21" fill="none" xmlns="http://www.w3.org/2000/svg">
<rect width="20" height="21" fill="#D5D5D5"/>
<g id="Login page">
<rect width="1440" height="780" transform="translate(-412 -379)" fill="white"/>
<g id="Group 1261153232">
<g id="Group 1261153231">
<g id="Group 1261153226">
<g id="Group 1261153225">
<g id="Rectangle 7729">
<rect x="-364" y="-19.5" width="400" height="60" rx="8" fill="#9CCFFE" fill-opacity="0.1"/>
<rect x="-363.5" y="-19" width="399" height="59" rx="7.5" stroke="#080E12" stroke-opacity="0.1"/>
</g>
</g>
<g id="vuesax/linear/eye-slash">
<g id="eye-slash">
<path id="Vector" d="M12.1084 8.3916L7.89172 12.6083C7.35006 12.0666 7.01672 11.3249 7.01672 10.4999C7.01672 8.84993 8.35006 7.5166 10.0001 7.5166C10.8251 7.5166 11.5667 7.84994 12.1084 8.3916Z" stroke="#080E12" stroke-width="1.5" stroke-linecap="round" stroke-linejoin="round"/>
<path id="Vector_2" d="M14.85 5.3084C13.3917 4.2084 11.725 3.6084 9.99999 3.6084C7.05832 3.6084 4.31666 5.34173 2.40833 8.34173C1.65833 9.51673 1.65833 11.4917 2.40833 12.6667C3.06666 13.7001 3.83332 14.5917 4.66666 15.3084" stroke="#080E12" stroke-width="1.5" stroke-linecap="round" stroke-linejoin="round"/>
<path id="Vector_3" d="M7.01672 16.7751C7.96672 17.1751 8.97506 17.3917 10.0001 17.3917C12.9417 17.3917 15.6834 15.6584 17.5917 12.6584C18.3417 11.4834 18.3417 9.5084 17.5917 8.3334C17.3167 7.90006 17.0167 7.49173 16.7084 7.1084" stroke="#080E12" stroke-width="1.5" stroke-linecap="round" stroke-linejoin="round"/>
<path id="Vector_4" d="M12.925 11.0835C12.7083 12.2585 11.75 13.2168 10.575 13.4335" stroke="#080E12" stroke-width="1.5" stroke-linecap="round" stroke-linejoin="round"/>
<path id="Vector_5" d="M7.89163 12.6084L1.66663 18.8334" stroke="#080E12" stroke-width="1.5" stroke-linecap="round" stroke-linejoin="round"/>
<path id="Vector_6" d="M18.3333 2.1665L12.1083 8.3915" stroke="#080E12" stroke-width="1.5" stroke-linecap="round" stroke-linejoin="round"/>
</g>
</g>
</g>
</g>
</g>
</g>
</svg>
