<svg width="24" height="25" viewBox="0 0 24 25" fill="none" xmlns="http://www.w3.org/2000/svg">
<rect width="24" height="25" fill="#D5D5D5"/>
<g id="Login page">
<rect width="1440" height="780" transform="translate(-64 -377)" fill="white"/>
<g id="Group 1261153232">
<g id="Group 1261153231">
<g id="Group 1261153226">
<g id="Group 1261153225">
<g id="Rectangle 7729">
<rect x="-16" y="-17.5" width="400" height="60" rx="8" fill="#9CCFFE" fill-opacity="0.1"/>
<rect x="-15.5" y="-17" width="399" height="59" rx="7.5" stroke="#080E12" stroke-opacity="0.1"/>
</g>
</g>
<g id="vuesax/linear/key">
<g id="key">
<path id="Vector" d="M19.79 15.4298C17.73 17.4798 14.78 18.1098 12.19 17.2998L7.48002 21.9998C7.14002 22.3498 6.47002 22.5598 5.99002 22.4898L3.81002 22.1898C3.09002 22.0898 2.42002 21.4098 2.31002 20.6898L2.01002 18.5098C1.94002 18.0298 2.17002 17.3598 2.50002 17.0198L7.20002 12.3198C6.40002 9.71982 7.02002 6.76982 9.08002 4.71982C12.03 1.76982 16.82 1.76982 19.78 4.71982C22.74 7.66982 22.74 12.4798 19.79 15.4298Z" stroke="#080E12" stroke-width="1.5" stroke-miterlimit="10" stroke-linecap="round" stroke-linejoin="round"/>
<path id="Vector_2" d="M6.89001 17.9902L9.19001 20.2902" stroke="#080E12" stroke-width="1.5" stroke-miterlimit="10" stroke-linecap="round" stroke-linejoin="round"/>
<path id="Vector_3" d="M14.5 11.5C15.3284 11.5 16 10.8284 16 10C16 9.17157 15.3284 8.5 14.5 8.5C13.6716 8.5 13 9.17157 13 10C13 10.8284 13.6716 11.5 14.5 11.5Z" stroke="#080E12" stroke-width="1.5" stroke-linecap="round" stroke-linejoin="round"/>
</g>
</g>
</g>
</g>
</g>
</g>
</svg>
