<svg width="24" height="24" viewBox="0 0 24 24" fill="none" xmlns="http://www.w3.org/2000/svg">
<rect width="24" height="24" fill="#D5D5D5"/>
<g id="User managment" clip-path="url(#clip0_0_1)">
<rect width="1920" height="1139" transform="translate(-762 -174)" fill="#EAF5FE"/>
<g id="Rectangle 34625773" filter="url(#filter0_d_0_1)">
<path d="M-434 -23C-434 -31.2843 -427.284 -38 -419 -38H1100C1108.28 -38 1115 -31.2843 1115 -23V844C1115 852.284 1108.28 859 1100 859H-419C-427.284 859 -434 852.284 -434 844V-23Z" fill="white"/>
</g>
<g id="Group 1261154625">
<g id="Group 1261153239">
<g id="Group 1261153238">
<g id="Group 1261154667">
<g id="Rectangle 7732">
<rect x="-361" y="-12" width="405" height="48" rx="8" fill="white"/>
<rect x="-360.75" y="-11.75" width="404.5" height="47.5" rx="7.75" stroke="#151617" stroke-opacity="0.2" stroke-width="0.5"/>
</g>
<g id="Iconsax/Linear/searchnormal1">
<path id="Vector" d="M22 22L20 20M11.5 21C12.7476 21 13.9829 20.7543 15.1355 20.2769C16.2881 19.7994 17.3354 19.0997 18.2175 18.2175C19.0997 17.3354 19.7994 16.2881 20.2769 15.1355C20.7543 13.9829 21 12.7476 21 11.5C21 10.2524 20.7543 9.0171 20.2769 7.86451C19.7994 6.71191 19.0997 5.66464 18.2175 4.78249C17.3354 3.90033 16.2881 3.20056 15.1355 2.72314C13.9829 2.24572 12.7476 2 11.5 2C8.98044 2 6.56408 3.00089 4.78249 4.78249C3.00089 6.56408 2 8.98044 2 11.5C2 14.0196 3.00089 16.4359 4.78249 18.2175C6.56408 19.9991 8.98044 21 11.5 21Z" stroke="#151617" stroke-width="1.5" stroke-linecap="round" stroke-linejoin="round"/>
</g>
</g>
</g>
</g>
</g>
</g>
<defs>
<filter id="filter0_d_0_1" x="-464" y="-64" width="1609" height="957" filterUnits="userSpaceOnUse" color-interpolation-filters="sRGB">
<feFlood flood-opacity="0" result="BackgroundImageFix"/>
<feColorMatrix in="SourceAlpha" type="matrix" values="0 0 0 0 0 0 0 0 0 0 0 0 0 0 0 0 0 0 127 0" result="hardAlpha"/>
<feOffset dy="4"/>
<feGaussianBlur stdDeviation="15"/>
<feComposite in2="hardAlpha" operator="out"/>
<feColorMatrix type="matrix" values="0 0 0 0 0 0 0 0 0 0 0 0 0 0 0 0 0 0 0.1 0"/>
<feBlend mode="normal" in2="BackgroundImageFix" result="effect1_dropShadow_0_1"/>
<feBlend mode="normal" in="SourceGraphic" in2="effect1_dropShadow_0_1" result="shape"/>
</filter>
<clipPath id="clip0_0_1">
<rect width="1920" height="1139" fill="white" transform="translate(-762 -174)"/>
</clipPath>
</defs>
</svg>
